PathFileType	4	(X/Y/Z)	..\data\2014050\dynamic\2014050_C5_05.trc
DataRate	CameraRate	NumFrames	NumMarkers	Units	OrigDataRate	OrigDataStartFrame	OrigNumFrames
100.000000	100.000000	4	52	mm	100.000000	0	142
Frame#	Time	L_IAS			L_IPS			R_IPS			R_IAS			L_FTC			L_FLE			L_FME			L_FAX			L_TTC			L_FAL			L_TAM			L_FCC			L_FM1			L_FM2			L_FM5			R_FTC			R_FLE			R_FME			R_FAX			R_TTC			R_FAL			R_TAM			R_FCC			R_FM1			R_FM2			R_FM5			CV7			TV10			SXS			SJN			L_SIA			L_SRS			L_SAA			L_SAE			L_HLE			L_HME			L_UOA			L_RSP			L_UHE			L_HM2			L_HM5			R_SIA			R_SRS			R_SAA			R_SAE			R_HLE			R_HME			R_UOA			R_RSP			R_UHE			R_HM2			R_HM5			
		X1	Y1	Z1	X2	Y2	Z2	X3	Y3	Z3	X4	Y4	Z4	X5	Y5	Z5	X6	Y6	Z6	X7	Y7	Z7	X8	Y8	Z8	X9	Y9	Z9	X10	Y10	Z10	X11	Y11	Z11	X12	Y12	Z12	X13	Y13	Z13	X14	Y14	Z14	X15	Y15	Z15	X16	Y16	Z16	X17	Y17	Z17	X18	Y18	Z18	X19	Y19	Z19	X20	Y20	Z20	X21	Y21	Z21	X22	Y22	Z22	X23	Y23	Z23	X24	Y24	Z24	X25	Y25	Z25	X26	Y26	Z26	X27	Y27	Z27	X28	Y28	Z28	X29	Y29	Z29	X30	Y30	Z30	X31	Y31	Z31	X32	Y32	Z32	X33	Y33	Z33	X34	Y34	Z34	X35	Y35	Z35	X36	Y36	Z36	X37	Y37	Z37	X38	Y38	Z38	X39	Y39	Z39	X40	Y40	Z40	X41	Y41	Z41	X42	Y42	Z42	X43	Y43	Z43	X44	Y44	Z44	X45	Y45	Z45	X46	Y46	Z46	X47	Y47	Z47	X48	Y48	Z48	X49	Y49	Z49	X50	Y50	Z50	X51	Y51	Z51	X52	Y52	Z52	

1	0	-183.000244140625	871.5706787109377	-293.5573425292969	-388.121307373047	881.7922973632815	-267.1550903320313	-398.9280700683595	887.3281860351565	-159.8304138183594	-205.5660095214844	874.433044433594	-82.08454895019533	-223.5150299072266	782.2708129882815	-388.2622375488282	-85.3759231567383	433.2496948242189	-325.6122131347657	-80.14421844482423	435.2142028808595	-187.5071563720703	-88.85752105712892	369.6206054687501	-326.6562194824219	-27.78375244140626	382.8207397460938	-272.6663208007813	12.97701168060303	73.39102935791017	-284.0414428710938	29.89813232421876	90.43852996826173	-199.5301666259766	-8.568770408630373	11.1686954498291	-226.9988555908204	147.3713684082032	86.0485305786133	-207.7596893310547	146.5217590332032	99.55971527099612	-259.1643676757813	122.8925170898438	57.5043296813965	-300.7120971679688	-318.7479858398438	799.2683715820315	-22.71768760681153	-406.4091796875001	433.100799560547	-73.12810516357423	-382.8631286621094	427.1648559570314	-210.1628723144532	-455.312225341797	387.5744628906251	-75.27066802978517	-387.2332458496095	360.6241455078126	-125.0412063598633	-571.1089477539064	85.4630584716797	-133.974349975586	-538.2965698242189	97.85681152343753	-219.1861877441407	-619.4379882812501	59.48582077026369	-187.2796020507813	-479.8179626464845	36.98457717895509	-244.9319915771485	-441.4264526367189	17.11032676696778	-186.310287475586	-482.1186523437501	10.8586368560791	-106.2486724853516	-317.6961975097657	1360.785766601563	-199.6894226074219	-405.267791748047	1141.658203125	-197.2451934814454	-175.1834259033203	1039.7392578125	-212.0437011718751	-207.3261413574219	1269.872680664063	-205.7569122314454	-409.0847778320314	1179.649047851563	-275.9748229980469	-368.2898254394532	1294.00048828125	-288.7830200195313	-323.0710144042969	1305.703002929688	-355.8983459472657	-278.6047668457032	1302.2138671875	-375.3050537109376	-419.5532531738282	1042.769897460938	-450.6314392089845	-466.164764404297	1048.265625	-379.1017150878907	-463.661346435547	1032.577026367188	-436.1878051757814	-476.286590576172	808.8221435546877	-418.6446533203126	-498.5355224609376	835.0418090820315	-482.4949035644532	-515.9423217773439	736.8396606445314	-417.0989379882814	-549.3998413085939	790.685485839844	-487.4116516113282	-399.925018310547	1194.48095703125	-109.23681640625	-356.4342041015626	1298.846557617188	-105.805908203125	-304.6001586914063	1304.130126953125	-38.9969711303711	-246.4938507080079	1306.091674804688	-44.23033142089844	25.42762756347657	968.072204589844	33.23915100097657	-30.1050090789795	966.9810791015627	5.35835886001587	-140.7842102050782	988.2239379882815	41.38222122192384	61.94365310668947	946.7920532226565	7.854359149932863	43.44413375854493	902.9410400390627	41.0660629272461	151.9549865722657	930.6958007812502	12.01718521118164	98.23187255859378	849.5614013671877	31.65472412109376	
2	0.01	-165.2027282714844	870.9585571289065	-292.9959716796876	-370.0519409179688	880.2192993164065	-268.9769287109376	-382.0174255371094	886.526306152344	-162.2830047607422	-189.149642944336	873.8658447265627	-81.78882598876955	-205.2015838623047	780.921081542969	-388.3431091308595	-67.72488403320314	431.952117919922	-325.3740844726563	-62.93874359130861	434.0597229003907	-186.9519653320313	-71.0341262817383	368.5496826171876	-326.1042175292969	-9.697350502014162	382.2385864257813	-272.5054931640626	34.54212951660157	73.35414886474611	-283.1256713867188	51.36724853515626	90.61160278320314	-198.5727844238282	13.01949787139893	11.49810028076172	-225.9075927734376	168.8482971191407	86.6692352294922	-206.729232788086	168.0780487060547	99.82533264160159	-258.2123413085938	144.5674285888672	57.46675491333009	-299.3764648437501	-302.7515869140626	798.390563964844	-22.07291793823243	-394.0142211914064	433.9266967773439	-71.8914260864258	-369.4185180664063	426.9036560058595	-208.3849182128907	-443.9416809082032	389.4656982421876	-73.99802398681642	-376.0807800292969	360.3904113769532	-123.3043899536133	-567.8793334960939	89.6379852294922	-131.9343566894532	-535.0108642578126	101.6102371215821	-217.4840850830079	-617.3032226562501	65.88549041748048	-185.0489501953125	-472.8052062988282	29.88104629516602	-237.9694061279297	-440.4029541015626	19.45876693725586	-179.5382080078125	-481.7425537109376	10.55159091949463	-106.2854614257813	-301.6264343261719	1359.314208984375	-201.3778991699219	-388.9532775878907	1140.132690429688	-198.3673858642579	-158.4393157958985	1038.679321289063	-212.5273437500001	-190.7991790771485	1268.588012695313	-207.1349334716797	-392.7055664062501	1177.993896484375	-276.8936462402344	-351.6784973144532	1292.197509765625	-290.1895751953126	-306.4360961914063	1304.188232421875	-357.0754089355469	-262.0390930175782	1300.482055664063	-376.6271667480469	-409.6111755371095	1044.957641601563	-451.042205810547	-455.1628417968751	1051.781494140625	-378.8516540527344	-453.6806640625001	1035.95458984375	-436.1575927734376	-473.1825561523439	812.9118652343752	-418.4798889160157	-494.8549194335939	839.670593261719	-482.4950561523439	-516.8067626953126	743.3894042968751	-415.4285583496095	-548.0155029296876	797.8381958007815	-486.3874816894532	-384.2126770019532	1193.267456054688	-110.5586013793946	-340.8217163085938	1297.936767578125	-107.3329391479492	-289.7808532714844	1304.216552734375	-40.26715850830079	-231.0386505126954	1305.486083984375	-45.89904785156251	10.78448963165283	988.9149169921877	37.00221252441407	-40.09272384643555	976.5845947265627	2.735440969467164	-120.1122207641602	990.3638916015627	41.71720123291016	89.61640930175783	957.993835449219	3.433626413345338	66.98699188232423	910.8115844726565	38.13578796386719	176.3708801269532	941.488464355469	5.762296199798585	123.3418960571289	859.140563964844	27.85078811645509	
3	0.02	-147.3005676269532	870.3989257812502	-292.3663330078126	-351.8012084960938	878.955261230469	-270.7720947265626	-364.8515014648438	885.9790039062502	-164.6595306396485	-172.3972930908203	873.4355468750002	-81.53358459472658	-186.6751556396485	779.8161621093752	-388.3970642089845	-49.78272628784181	430.8730773925782	-325.2390441894532	-45.20465469360352	433.1832885742189	-186.6928253173828	-53.28907012939455	367.6163940429688	-325.7160644531251	8.130145072937013	381.3969421386719	-272.3712463378907	52.92059707641603	72.89293670654298	-282.3654785156251	69.66419219970705	90.06064605712892	-197.7716979980469	30.71492576599122	11.75764274597168	-225.0397338867188	187.0813140869141	85.44512939453126	-205.9735717773438	186.4813537597657	98.30683135986331	-257.5040283203126	162.6375732421875	56.03112792968751	-298.3434753417969	-285.8474121093751	796.8721313476565	-20.51254081726075	-380.7852783203126	434.5991516113282	-70.37237548828126	-355.1348266601563	426.4214782714845	-206.2958679199219	-431.7354125976564	391.287322998047	-72.46710205078126	-363.9924621582032	359.9277648925782	-121.1660614013672	-564.0045776367189	94.14282989501955	-129.5959777832032	-531.0557250976564	105.57373046875	-215.4244079589844	-614.3776855468751	72.9420623779297	-182.5027618408203	-466.253631591797	23.11170959472657	-231.2987976074219	-439.5176086425782	21.72523307800293	-173.0527496337891	-481.4134216308595	10.26728248596192	-106.3278732299805	-285.4176635742188	1357.96923828125	-203.2462005615235	-372.3745727539063	1138.698852539063	-199.5212402343751	-141.4869079589844	1037.826049804688	-213.0319519042969	-174.1553955078125	1267.532958984375	-208.6202392578126	-376.0746459960938	1176.4453125	-277.9390869140626	-334.8706970214844	1290.491088867188	-291.7728576660157	-289.5587463378907	1302.75	-358.4411010742188	-245.2431335449219	1298.8681640625	-378.0795288085938	-398.6455383300782	1047.027587890625	-451.6417541503907	-443.2881469726564	1055.151611328125	-378.9186096191407	-442.6594238281251	1039.117431640625	-436.4021911621095	-468.2502441406251	816.9544067382815	-418.3909301757814	-489.4578857421876	844.055114746094	-482.5853271484376	-515.3635253906251	749.9519042968751	-413.6492919921876	-544.7409057617189	804.6080322265627	-485.2681579589845	-368.3329772949219	1192.167114257813	-111.9984741210938	-325.0718688964844	1297.13818359375	-109.0663146972657	-274.7778015136719	1304.489624023438	-41.69112777709962	-215.5194549560547	1305.12548828125	-47.69804000854493	-4.018802642822267	1008.229431152344	41.11561965942384	-50.3582229614258	985.0554809570315	0.6386917233467103	-100.2913208007813	992.4439697265627	42.0111427307129	114.980583190918	968.1578369140627	-0.797427296638489	89.25576019287111	918.211853027344	35.16728210449219	198.6532897949219	951.075378417969	-0.1932678818702698	146.9795684814453	868.1504516601565	23.96913528442383	
4	0.03	-129.3204345703125	869.8701782226565	-291.7102966308594	-333.4467163085938	878.0009765625002	-272.4777832031251	-347.4819946289063	885.6296386718752	-166.8552551269532	-155.3523559570313	873.0821533203127	-81.33557891845705	-167.9423522949219	779.0313720703127	-388.4348449707032	-31.58220863342286	430.0466308593751	-325.1994628906251	-27.04385375976563	432.5909118652345	-186.7301940917969	-35.5909652709961	366.8417663574219	-325.4888305664063	25.69750404357911	380.3442687988282	-272.2339172363282	68.32594299316408	72.00998687744142	-281.7337646484376	84.95564270019533	88.8118133544922	-197.0932006835938	44.75065231323243	11.92677974700928	-224.384506225586	202.258041381836	82.44133758544923	-205.4037322998047	201.9468841552735	95.07942962646486	-256.9587402343751	177.3381042480469	53.27047348022462	-297.5844421386719	-268.1839904785157	794.8089599609377	-18.24629402160645	-366.6006469726563	435.0098876953126	-68.57504272460939	-339.9059448242188	425.6300048828126	-203.9090576171876	-418.5652160644532	392.9343872070314	-70.67342376708986	-350.8682250976563	359.1519470214844	-118.6358108520508	-559.3669433593751	99.0135192871094	-127.0086746215821	-526.2983398437501	109.7398376464844	-213.030258178711	-610.4699096679689	80.70890045166017	-179.7031402587891	-460.5706481933595	17.1316204071045	-225.2936401367188	-438.8169555664064	23.80617904663086	-167.2091522216797	-481.1378479003907	10.12558650970459	-106.3710327148438	-269.0413513183594	1356.770141601563	-205.2636718750001	-355.5407409667969	1137.38330078125	-200.6919555664063	-124.3491134643555	1037.157958984375	-213.5474090576172	-157.380615234375	1266.703979492188	-210.1905212402344	-359.1938781738282	1175.010986328125	-279.0978393554688	-317.8550720214844	1288.89697265625	-293.5179748535157	-272.4217529296876	1301.38134765625	-359.9869689941407	-228.2001495361329	1297.364624023438	-379.6504516601563	-386.5861816406251	1048.869873046875	-452.4287719726564	-430.5278625488282	1058.273681640625	-379.3206787109376	-430.5509338378907	1041.95703125	-436.9308471679689	-461.427703857422	820.7580566406252	-418.4268493652345	-482.2673645019532	848.0303344726565	-482.8119201660157	-511.5307617187501	756.2457885742189	-411.8883056640626	-539.4935913085939	810.7805786132815	-484.1597595214845	-352.2655029296876	1191.206787109375	-113.5354309082032	-309.1487731933594	1296.463989257813	-110.9794692993164	-259.4821777343751	1304.890991210938	-43.25322341918946	-199.8956451416016	1304.996948242188	-49.60270309448244	-16.94088363647461	1025.292846679688	45.22233963012696	-59.17229080200197	992.2088623046877	-0.8992242813110354	-81.30026245117189	994.3830566406252	42.25877761840821	137.9900970458985	977.1265869140627	-4.785508632659913	110.2875747680664	924.995056152344	32.19785690307618	219.005599975586	959.5525512695315	-5.764783382415772	169.1878662109375	876.419616699219	20.05952644348145	
